<svg width="200" height="46" viewBox="0 0 200 46" fill="none" xmlns="http://www.w3.org/2000/svg">
  <g clip-path="url(#clip0)">
    <path d="M48.8973 0H37.1736C34.0155 0 31.0453 1.5904 29.1722 4.28445L0 45.7691H11.7236C14.8818 45.7691 17.852 44.1787 19.7251 41.4846L48.8973 0Z" transform="translate(150.103)" fill="url(#paint0_linear)"/>
    <path
      fill-rule="evenodd"
      clip-rule="evenodd"
      d="M169.622 5.39795L165.897 0H152.281L162.929 15.3843L169.622 5.39795ZM178.7 38.0137L185.404 28.0093L197.665 45.6401H184.049L178.7 38.0137ZM146.743 39.5405L142.655 45.6401H118.181V0H147.687V6.1001H128.051V18.2998H143.472V24.3994H128.051V39.5405H146.743ZM18.1971 39.5405C21.0073 39.5405 22.4124 38.5239 22.4124 36.4902V30.2817H14.9072V24.1816H32.282V37.4707C32.282 40.0122 31.0482 42.0093 28.5808 43.4619C26.3191 44.9141 23.5089 45.6401 20.1505 45.6401H12.1315C6.85388 45.6401 3.15283 44.0791 1.02808 40.9565C0.342651 39.9399 0 38.7778 0 37.4707V8.16943C0 5.70068 1.16516 3.73975 3.49548 2.2876C5.89441 0.762695 8.77307 0 12.1315 0H20.1505C23.5089 0 26.3533 0.726074 28.6837 2.17871C31.0825 3.63086 32.282 5.62793 32.282 8.16943V14.2695H22.4124V9.1499C22.4124 7.1167 21.0073 6.1001 18.1971 6.1001H14.0848C11.2747 6.1001 9.86963 7.1167 9.86963 9.1499V36.4902C9.86963 38.5239 11.2747 39.5405 14.0848 39.5405H18.1971ZM58.264 39.5405C61.0056 39.5405 62.3765 38.5239 62.3765 36.4902V9.1499C62.3765 7.1167 61.0056 6.1001 58.264 6.1001H53.7405C50.9304 6.1001 49.5254 7.1167 49.5254 9.1499V36.4902C49.5254 38.5239 50.9304 39.5405 53.7405 39.5405H58.264ZM39.6556 8.16943C39.6556 5.70068 40.8208 3.73975 43.1512 2.2876C45.55 0.762695 48.4287 0 51.7871 0H60.2174C65.495 0 69.196 1.56152 71.3208 4.68408C72.0062 5.70068 72.3489 6.8623 72.3489 8.16943V37.4707C72.3489 39.9399 71.1494 41.937 68.7506 43.4619C66.4203 44.9141 63.5759 45.6401 60.2174 45.6401H51.7871C46.5096 45.6401 42.8085 44.0791 40.6837 40.9565C39.9984 39.9399 39.6556 38.7778 39.6556 37.4707V8.16943ZM102.273 36.4902C102.273 38.5239 100.868 39.5405 98.0581 39.5405H90.1418V6.1001H98.0581C100.868 6.1001 102.273 7.1167 102.273 9.1499V36.4902ZM108.545 2.17871C106.214 0.726074 103.404 0 100.114 0H80.2722V45.6401H100.114C103.404 45.6401 106.18 44.9141 108.442 43.4619C110.909 42.0093 112.143 40.0122 112.143 37.4707V8.16943C112.143 5.62793 110.943 3.63086 108.545 2.17871Z"
      transform="translate(0 0.359863)"
      fill="black"/>
  </g>
  <defs>
    <linearGradient id="paint0_linear" x2="1" gradientUnits="userSpaceOnUse" gradientTransform="translate(80.4183 -16.1935) scale(80.0532 65.6074) rotate(90)">
      <stop stop-color="#24BEFC"/>
      <stop offset="1" stop-color="#1265E7"/>
    </linearGradient>
    <clipPath id="clip0">
      <rect width="200" height="46" fill="white"/>
    </clipPath>
  </defs>
</svg>
