<?xml version="1.0" encoding="utf-8"?>
<!-- Generator: Adobe Illustrator 21.1.0, SVG Export Plug-In . SVG Version: 6.00 Build 0)  -->
<svg version="1.1" id="Layer_1" xmlns="http://www.w3.org/2000/svg" xmlns:xlink="http://www.w3.org/1999/xlink" x="0px" y="0px"
	 viewBox="0 0 61.6 39.5" style="enable-background:new 0 0 61.6 39.5;" xml:space="preserve">
<style type="text/css">
	.st0{fill:#FFFFFF;}
	.st1{fill:#69FFBD;}
</style>
<g id="XMLID_280_">
	<path id="XMLID_302_" class="st0" d="M41.4,22.1l-5.3-2.3c-0.4-0.2-0.6-0.5-0.6-0.9v-1.4c1.8-1.4,2.9-3.6,2.9-6v-2
		c0.6-0.3,1-0.9,1-1.6V7.7c0-4.2-3.5-7.7-7.7-7.7h-1.9c-4.2,0-7.7,3.5-7.7,7.7v1.8c0,0.6,0.3,1.2,0.7,1.5c0.1,0.1,0.2,0.1,0.2,0.2
		v0.4c0,2.4,1.1,4.6,2.9,6V19c0,0.4-0.2,0.8-0.6,0.9L20,22.2c-1.7,0.8-2.8,2.5-2.8,4.4v12c0,0.5,0.4,0.9,0.9,0.9s0.9-0.4,0.9-0.9
		v-12c0-0.1,0-0.2,0-0.3l2.4,2.4c0.4,0.4,0.6,0.9,0.6,1.4v8.5c0,0.5,0.4,0.9,0.9,0.9s0.9-0.4,0.9-0.9v-8.5c0-1-0.4-2-1.1-2.7
		l-2.9-2.9c0.3-0.3,0.6-0.5,0.9-0.7l5.2-2.3l3.8,3.8v13.2c0,0.5,0.4,0.9,0.9,0.9s0.9-0.4,0.9-0.9V25.3l3.8-3.8l5.2,2.3
		c0.4,0.2,0.7,0.4,0.9,0.7l-2.9,2.9c-0.7,0.7-1.1,1.7-1.1,2.7v8.5c0,0.5,0.4,0.9,0.9,0.9s0.9-0.4,0.9-0.9v-8.5c0-0.5,0.2-1,0.6-1.4
		l2.4-2.4c0,0.1,0,0.2,0,0.3v12c0,0.5,0.4,0.9,0.9,0.9s0.9-0.4,0.9-0.9v-12C44.3,24.6,43.2,22.9,41.4,22.1z M34.2,20.4l-3.5,3.5
		l-3.5-3.5v-0.1c0.3-0.4,0.4-0.9,0.4-1.4v-0.5l0.2,0.1c1.9,0.8,4,0.8,5.9,0l0.2-0.1v0.5c0,0.5,0.1,1,0.4,1.4L34.2,20.4L34.2,20.4z
		 M30.8,17.3c-3.2,0-5.9-2.6-5.9-5.9V11c0.6-0.2,1.1-0.6,1.6-1.1c0.4-0.3,0.4-0.9,0.1-1.3s-0.9-0.4-1.3-0.1
		c-0.5,0.4-0.9,0.7-1.3,0.8l0,0c0,0,0,0,0-0.1V7.4c0-3.2,2.6-5.9,5.9-5.9h1.9c3.2,0,5.9,2.6,5.9,5.9v0.2v0.1
		c-5.4,1.1-8.2-0.9-9.1-1.9c-0.4-0.4-0.9-0.4-1.3,0s-0.4,0.9,0,1.3c2.8,2.8,6.9,2.9,9.4,2.6v1.6C36.6,14.6,34,17.3,30.8,17.3z"/>
	<path id="XMLID_287_" class="st0" d="M9.4,39.3c0.4,0,0.8-0.4,0.8-0.8v-9.4l2.3-2.3l0.1,0.1c0.1,0.1,0.3,0.2,0.4,0.3l0.9,0.4
		c0.1,0.1,0.2,0.1,0.4,0.1c0.3,0,0.6-0.2,0.7-0.4c0.2-0.4,0-0.9-0.4-1.1l-0.9-0.4c-0.4-0.2-0.6-0.6-0.6-1v-2.1l0,0
		c1.8-1.2,2.9-3.3,2.9-5.4v-1.9c0-2.3-1.1-4.3-3-5.6h-0.1V9.7C13,9.3,13.1,9,13.1,8.6c0-2-1.7-3.7-3.7-3.7S5.7,6.6,5.7,8.6
		c0,0.4,0.1,0.7,0.2,1.1v0.1H5.8c-1.9,1.2-3,3.3-3,5.6v1.9c0,2.2,1.1,4.2,2.9,5.4l0,0v2.1c0,0.4-0.2,0.8-0.6,1L2,27.4
		c-1.3,0.6-2,1.9-2,3.3v7.9c0,0.4,0.4,0.8,0.8,0.8s0.8-0.4,0.8-0.8v-7.8l1.7,1.7c0.4,0.4,0.6,0.9,0.6,1.5v4.6c0,0.4,0.4,0.8,0.8,0.8
		s0.8-0.4,0.8-0.8V34c0-1-0.4-1.9-1.1-2.6l-2.2-2.2l0.1-0.1c0.1-0.1,0.3-0.2,0.5-0.3l3.1-1.6C6,27.1,6.2,27,6.3,26.9l0.1-0.1
		l2.3,2.3v9.4C8.6,39,9,39.3,9.4,39.3z M9.4,6.3c1.2,0,2.1,0.9,2.1,2.1c0,0.1,0,0.3,0,0.4v0.1h-0.1c-1.3-0.4-2.6-0.4-3.9,0H7.4V8.8
		c0-0.1,0-0.3,0-0.4C7.3,7.3,8.3,6.3,9.4,6.3z M4.4,15.1c0.1-2.7,2.3-4.9,5-4.9c2.8,0,5,2.3,5,5v0.4h-0.1c-0.6,0.2-1.2,0.3-1.8,0.3
		c-2.8,0-4.4-2.1-4.5-2.2c-0.1-0.2-0.4-0.3-0.6-0.3s-0.5,0.1-0.6,0.2C5.9,14.5,5,14.9,4.4,15.1H4.2H4.4z M4.4,17.2v-0.3h0.1
		c0.7-0.2,1.8-0.5,2.9-1.4l0.1-0.1l0.1,0.1c0.5,0.5,1.1,0.9,1.7,1.2c1.6,0.9,3.3,1.1,5.1,0.7h0.1v0.1c-0.1,2.7-2.3,4.7-5,4.7
		C6.6,22.2,4.4,20,4.4,17.2z M7.2,25.5L7.2,25.5c0.1-0.3,0.1-0.5,0.1-0.8v-1.3h0.1c1.3,0.4,2.7,0.4,3.9,0h0.1v1.3
		c0,0.2,0,0.5,0.1,0.7v0.1l-2.2,2.2L7.2,25.5z"/>
	<path id="XMLID_282_" class="st1" d="M60.8,39.3c0.4,0,0.8-0.4,0.8-0.8v-9.8c0-1.4-0.8-2.7-2-3.3l-5.1-2.5c-0.4-0.2-0.6-0.6-0.6-1
		v-1.3l0,0c1.2-1.1,1.9-2.6,1.9-4.2v-1.1H56c0.4,0,0.8-0.4,0.8-0.8v-1.9c0-3.1-2.5-5.6-5.6-5.6h-1.9c-3.1,0-5.6,2.5-5.6,5.6v1.9
		c0,0.4,0.4,0.8,0.8,0.8h0.2v1.1c0,1.6,0.7,3.1,1.9,4.2l0,0v1.3c0,0.4-0.2,0.8-0.6,1c-0.2,0.1-0.3,0.3-0.4,0.5s-0.1,0.4,0,0.6
		c0.1,0.3,0.4,0.4,0.7,0.4c0.1,0,0.2,0,0.4-0.1c0.1-0.1,0.3-0.2,0.4-0.3l0.1-0.1l2.3,2.3v12.3c0,0.4,0.4,0.8,0.8,0.8
		s0.8-0.4,0.8-0.8V26.2l2.3-2.3l0.1,0.1c0.1,0.1,0.3,0.2,0.4,0.3l5.1,2.5l-1.6,1.6c-0.7,0.7-1.1,1.6-1.1,2.6v7.5
		c0,0.4,0.4,0.8,0.8,0.8s0.8-0.4,0.8-0.8V31c0-0.6,0.2-1.1,0.6-1.5l1.6-1.6l0.1,0.2c0,0.2,0.1,0.4,0.1,0.5v9.8
		C60,39,60.4,39.3,60.8,39.3z M45.3,13.3h-0.1v-1c0-2.2,1.8-4.1,4.1-4.1h1.9c2.2,0,4.1,1.8,4.1,4.1v1.1h-0.1
		c-3.9-0.2-6.3-1.7-6.4-1.8c-0.3-0.2-0.7-0.2-1,0.1C46.8,12.7,45.9,13.1,45.3,13.3z M52.3,22.6l-2.2,2.2l-2.2-2.2v-0.1
		C48,22.3,48,22,48,21.8v-0.4l0.2,0.1c1.3,0.5,2.7,0.5,3.9,0l0.2-0.1v0.4c0,0.2,0,0.5,0.1,0.7L52.3,22.6L52.3,22.6z M50.2,20.3
		c-2.2,0-4.1-1.8-4.1-4.1v-1.5h0.1c0.7-0.3,1.4-0.7,2.1-1.3h0.1h0.1c0.9,0.5,2.9,1.3,5.7,1.6h0.1v1.2C54.2,18.5,52.4,20.3,50.2,20.3
		z"/>
</g>
</svg>
