<?xml version="1.0" encoding="utf-8"?>
<!-- Generator: Adobe Illustrator 21.1.0, SVG Export Plug-In . SVG Version: 6.00 Build 0)  -->
<svg version="1.1" id="Layer_1" xmlns="http://www.w3.org/2000/svg" xmlns:xlink="http://www.w3.org/1999/xlink" x="0px" y="0px"
	 viewBox="0 0 49.7 48.1" style="enable-background:new 0 0 49.7 48.1;" xml:space="preserve">
<style type="text/css">
	.st0{fill:none;}
	.st1{fill:#69FFBD;}
	.st2{fill:#FFFFFF;}
</style>
<g>
	<path class="st0" d="M34.4,28.5c-0.4-0.5-1.1-0.7-1.7-0.7S31.5,28,31,28.5l-0.1,0.2c-0.4,0.4-0.7,1-0.7,1.7c0,0.6,0.2,1.2,0.7,1.7
		l4.1,4.1c1,1,2.5,1,3.5,0l0.1-0.1c1-1,1-2.5-0.1-3.5L34.4,28.5z"/>
	<path class="st0" d="M29.7,33.2c-0.4-0.5-1.1-0.7-1.7-0.7s-1.2,0.2-1.7,0.7l-0.1,0.1c-1,1-1,2.5,0,3.5l4.1,4.1c1,1,2.5,1,3.5,0
		l0.1-0.1c1-1,1-2.5-0.1-3.5L29.7,33.2z"/>
	<path class="st0" d="M25,37.9c-0.4-0.5-1.1-0.7-1.7-0.7s-1.2,0.2-1.7,0.7L21.5,38c-1,1-1,2.5,0,3.5l4.1,4.1c1,1,2.5,1,3.5,0
		l0.1-0.1c1-1,1-2.5-0.1-3.5L25,37.9z"/>
	<path class="st0" d="M19.8,42.5c-0.4,0.5-0.6,1-0.6,1.6c0,0.7,0.2,1.3,0.7,1.8c0.5,0.4,1.1,0.7,1.8,0.7c0.6,0,1.5-0.4,2.1-0.7
		l-0.1-0.1l-3.2-3.2c-0.1,0-0.3-0.3-0.5-0.6c0.1,0.1,0.1,0.2,0.1,0.2L19.8,42.5z"/>
	<path class="st0" d="M19.3,40.6C19.3,40.7,19.3,40.7,19.3,40.6C19.3,40.7,19.3,40.7,19.3,40.6z"/>
	<path class="st0" d="M39.1,23.8c-0.4-0.5-1.1-0.7-1.7-0.7s-1.2,0.2-1.7,0.7l-0.1,0.1c-1,1-1,2.5,0,3.5l4.1,4.1c1,1,2.5,1,3.5,0
		l0.1-0.1c1-1,1-2.5-0.1-3.5L39.1,23.8z"/>
	<path class="st1" d="M3.9,22.4c-0.3-0.3-0.5-0.7-0.6-1.1l-0.4-3.1c-0.1-0.6-0.4-1.2-0.8-1.7c-0.5-0.5-0.5-1.4,0-1.9L14.6,2.1
		c0.2-0.2,0.5-0.4,0.8-0.4S16,1.8,16.3,2c0.5,0.5,1.3,0.9,2,0.9h3.4c0.5,0,1,0.2,1.4,0.6l11.6,11.6c1,1,1,2.7,0,3.6
		c-1,1-2.6,0.9-3.5,0l-7.9-7.9c-0.6-0.6-1.6-0.6-2.1,0l-6,6c-0.3,0.3-0.3,0.8,0,1.1s0.8,0.3,1.1,0l6-6l7.8,7.8
		c1.6,1.6,4.3,1.7,5.9,0c0.8-0.8,1.2-1.9,1.2-3s-0.5-2.1-1.3-2.9l-7.3-7L26.7,5L24,2.3c-0.7-0.7-1.6-1.1-2.5-1.1h-3.3
		c-0.4,0-0.7-0.1-0.9-0.4c-0.5-0.5-1.2-0.8-2-0.8c-0.7,0-1.4,0.3-2,0.8L0.8,13.5c-1.1,1.1-1.1,3,0,4.1c0.2,0.2,0.3,0.5,0.4,0.8
		l0.4,3.1c0.1,0.8,0.5,1.5,1,2l2.8,2.8l1.3-1.1L3.9,22.4z"/>
	<path class="st1" d="M43.6,25.9L43.6,25.9l-3.2-3.2c-1.6-1.6-4.1-1.6-5.7,0l-0.1,0.1c-0.9,0.9-1.3,2.2-1.1,3.5
		c-1.2-0.2-2.5,0.2-3.5,1.1l-0.1,0.1c-0.7,0.7-1.2,1.7-1.2,2.7c0,0.3,0,0.6,0,0.8c-1.2-0.2-2.5,0.2-3.4,1.1l-0.1,0.1
		c-0.9,0.9-1.3,2.2-1.1,3.5c-1.2-0.2-2.5,0.2-3.5,1.1l-0.1,0.1c-0.9,0.9-1.4,2.4-1.2,3.6l0,0v0.1v0.1c0.1,0.4,0.4,1,0.6,1.3
		s0.4,0.6,0.5,0.6l3.2,3.2l0.1,0.1l1,0.9c0.8,0.7,1.7,1,2.7,1s2.1-0.4,2.9-1.2l0.1-0.1c0.9-0.9,1.3-2.2,1.1-3.5c0.2,0,0.4,0,0.6,0
		c1,0,2.1-0.4,2.9-1.2l0.1-0.1c0.9-0.9,1.3-2.2,1.1-3.5c0.2,0,0.4,0,0.6,0c1,0,2.1-0.4,2.9-1.2l0.1-0.1c0.9-0.9,1.3-2.2,1.1-3.5
		c0.2,0,0.4,0,0.6,0c1,0,2.1-0.4,2.9-1.2l0.1-0.1c1.5-1.5,1.6-3.6,0.2-5.1l-0.8-0.8L43.6,25.9L43.6,25.9z M29.2,45.5L29.2,45.5
		c-1.1,1.1-2.6,1.1-3.6,0.1l-4.1-4.1c-1-1-1-2.5,0-3.5l0.1-0.1c0.5-0.5,1.1-0.7,1.7-0.7s1.3,0.2,1.7,0.7l4.1,4.1
		C30.2,43,30.2,44.5,29.2,45.5z M33.9,40.8l-0.1,0.1c-1,1-2.5,1-3.5,0l-4.1-4.1c-1-1-1-2.5,0-3.5l0.1-0.1c0.5-0.5,1.1-0.7,1.7-0.7
		s1.3,0.2,1.7,0.7l4.1,4.1C34.9,38.3,34.9,39.8,33.9,40.8z M38.6,36.1l-0.1,0.1c-1,1-2.5,1-3.5,0l-4.1-4.1c-0.5-0.5-0.7-1.1-0.7-1.7
		c0-0.7,0.3-1.3,0.7-1.7l0.1-0.2c0.5-0.5,1.1-0.7,1.7-0.7s1.3,0.2,1.7,0.7l4.1,4.1C39.6,33.6,39.6,35.1,38.6,36.1z M43.3,31.4
		l-0.1,0.1c-1,1-2.5,1-3.5,0l-4.1-4.1c-1-1-1-2.5,0-3.5l0.1-0.1c0.5-0.5,1.1-0.7,1.7-0.7s1.3,0.2,1.7,0.7l4.1,4.1
		C44.3,28.9,44.3,30.4,43.3,31.4z"/>
	<path class="st2" d="M49.1,14.6L36.4,1.9c-0.3-0.3-0.8-0.5-1.3-0.5s-0.9,0.2-1.3,0.5l-0.6,0.6c-0.7,0.8-1.7,1.3-2.8,1.4L29.5,4
		c-1.1,0.2-1.8,0.3-2.7,1l1.3,1.2c0.6-0.5,1.3-0.7,2.1-0.8l0.9-0.1c1.4-0.2,2.7-0.9,3.7-1.9l0.6-0.6c0.1-0.1,0.1-0.1,0.2-0.1
		c0,0,0.1,0,0.2,0.1l12.7,12.7c0.1,0.1,0.1,0.1,0.1,0.2c-0.5,0.1-0.5,0.1-0.5,0.2c-1.3,1.4-2.2,3.2-2.2,5.2v0.4
		c0,1.3-0.5,2.5-1.4,3.5l-0.8,0.8l0.3,0.3l0.6,0.6l1-1c1.2-1.2,1.9-2.9,1.9-4.6v-0.2c0-1.6,0.6-3.1,1.7-4.2
		C49.8,16.4,49.8,15.3,49.1,14.6z"/>
	<path class="st2" d="M24.7,46.8L24.7,46.8l-0.9-0.9L24.7,46.8z"/>
	<path class="st2" d="M19.3,40.5L19.3,40.5c0,0.1,0,0.1,0,0.1C19.3,40.6,19.3,40.5,19.3,40.5z"/>
	<polygon class="st2" points="6.7,25.2 5.4,26.3 5.4,26.3 	"/>
	<path class="st2" d="M24.7,46.8L24.7,46.8l-1-0.9c-0.6,0.3-1.5,0.7-2.1,0.7c-0.7,0-1.3-0.3-1.8-0.7c-0.5-0.5-0.7-1.1-0.7-1.8
		c0-0.6,0.2-1.1,0.6-1.6l0.3-0.3c0,0-0.1-0.1-0.1-0.2c-0.2-0.3-0.5-0.9-0.6-1.3v-0.1v-0.1c0,0-0.1,0.4-0.4,0.7
		c-1.1,1.1-2.9,1-3.9-0.4c-0.2-0.3-0.3-0.6-0.4-1c-0.1-0.8,0.1-1.7,0.7-2.2l4.4-4.4c0.3-0.3,0.3-0.8,0-1.1s-0.8-0.3-1.1,0l-4.3,4.3
		c-1,1-2.6,1-3.6,0c-0.9-1-0.9-2.5,0-3.5l4.4-4.4c0.3-0.3,0.3-0.8,0-1.1s-0.8-0.3-1.1,0l-4.4,4.4c-0.6,0.6-1.4,0.8-2.3,0.7
		c-0.3-0.1-0.7-0.2-1-0.4c-0.7-0.5-1.1-1.3-1.1-2.1c0-0.7,0.3-1.3,0.7-1.8l7.3-7.3c0.3-0.3,0.3-0.8,0-1.1c-0.3-0.3-0.8-0.3-1.1,0
		l-5.4,5.4l-1.3,1.1l0,0l-0.3,0.3L4.7,27c-1.6,1.6-1.6,4.2,0,5.8C5.5,33.6,6.5,34,7.6,34c0.2,0,0.4,0,0.6,0
		c-0.2,1.3,0.2,2.6,1.2,3.5c1,1,2.3,1.3,3.5,1.2c0,0.2,0,0.4,0,0.6c0,1.1,0.4,2.1,1.2,2.9c0.8,0.8,1.8,1.2,2.9,1.2
		c0.2,0,0.4,0,0.6,0c-0.2,1.3,0.2,2.6,1.2,3.5c0.8,0.8,1.9,1.2,2.9,1.2S24,47.6,24.7,46.8L24.7,46.8z"/>
	<path class="st2" d="M43.6,25.9l0.3,0.3L43.6,25.9z"/>
</g>
</svg>
