<?xml version="1.0" encoding="utf-8"?>
<!-- Generator: Adobe Illustrator 21.1.0, SVG Export Plug-In . SVG Version: 6.00 Build 0)  -->
<svg version="1.1" id="Layer_1" xmlns="http://www.w3.org/2000/svg" xmlns:xlink="http://www.w3.org/1999/xlink" x="0px" y="0px"
	 viewBox="0 0 55.3 54" style="enable-background:new 0 0 55.3 54;" xml:space="preserve">
<style type="text/css">
	.st0{fill:#FFFFFF;}
	.st1{fill:#69FFBD;}
</style>
<g id="XMLID_355_">
	<path id="XMLID_357_" class="st0" d="M51.1,17.8c-0.3,0.1-0.6,0.3-0.7,0.6c-0.2,0.3-0.2,0.7-0.1,1c0.8,2.4,1.2,5,1.2,7.6
		c0,6.5-2.5,12.7-7.2,17.3c-4.6,4.6-10.7,7.2-17.3,7.2c-6.5,0-12.7-2.5-17.3-7.2C5.1,39.7,2.5,33.6,2.5,27c0-6.5,2.5-12.7,7.2-17.3
		C14.3,5.1,20.5,2.5,27,2.5c3.5,0,6.8,0.7,9.9,2.1c3,1.4,5.7,3.3,8,5.7c0.5,0.5,1.3,0.6,1.8,0.1s0.5-1.3,0.1-1.8
		c-2.5-2.7-5.5-4.8-8.8-6.3C34.5,0.8,30.8,0,27,0C19.8,0,13,2.8,7.9,7.9S0,19.8,0,27s2.8,14,7.9,19.1S19.8,54,27,54s14-2.8,19.1-7.9
		S54,34.2,54,27c0-2.9-0.4-5.7-1.3-8.4C52.5,17.9,51.7,17.6,51.1,17.8z"/>
	<path id="XMLID_356_" class="st1" d="M54.5,8.5C54,8,53.4,7.7,52.7,7.7S51.4,8,50.9,8.5l-0.8,0.8c-0.3,0.3-0.3,0.9,0,1.2
		c0.3,0.3,0.9,0.3,1.2,0l0.8-0.8c0.2-0.2,0.4-0.3,0.6-0.3s0.4,0.1,0.6,0.3c0.2,0.2,0.3,0.4,0.3,0.6s-0.1,0.4-0.3,0.6L23.8,40.5
		c-0.2,0.2-0.4,0.3-0.6,0.3s-0.4-0.1-0.6-0.3L11.1,29c-0.2-0.2-0.3-0.4-0.3-0.6s0.1-0.4,0.3-0.6c0.2-0.2,0.4-0.3,0.6-0.3
		s0.4,0.1,0.6,0.3l10.3,10.3c0.2,0.2,0.4,0.3,0.6,0.3s0.4-0.1,0.6-0.3L48.9,13c0.3-0.3,0.3-0.9,0-1.2c-0.3-0.3-0.9-0.3-1.2,0
		L23.2,36.3l-9.7-9.7c-0.5-0.5-1.1-0.8-1.8-0.8s-1.3,0.3-1.8,0.8s-0.8,1.1-0.8,1.8c0,0.7,0.3,1.3,0.8,1.8l11.5,11.5
		c0.5,0.5,1.1,0.8,1.8,0.8s1.3-0.3,1.8-0.8l29.5-29.5c0.5-0.5,0.8-1.1,0.8-1.8C55.3,9.6,55,9,54.5,8.5z"/>
</g>
</svg>
