<svg xmlns="http://www.w3.org/2000/svg" viewBox="0 0 55.3 54"><path d="M51.1 17.8c-.3.1-.6.3-.7.6-.2.3-.2.7-.1 1 .8 2.4 1.2 5 1.2 7.6 0 6.5-2.5 12.7-7.2 17.3-4.6 4.6-10.7 7.2-17.3 7.2-6.5 0-12.7-2.5-17.3-7.2C5.1 39.7 2.5 33.6 2.5 27c0-6.5 2.5-12.7 7.2-17.3C14.3 5.1 20.5 2.5 27 2.5c3.5 0 6.8.7 9.9 2.1 3 1.4 5.7 3.3 8 5.7.5.5 1.3.6 1.8.1s.5-1.3.1-1.8c-2.5-2.7-5.5-4.8-8.8-6.3C34.5.8 30.8 0 27 0 19.8 0 13 2.8 7.9 7.9S0 19.8 0 27s2.8 14 7.9 19.1S19.8 54 27 54s14-2.8 19.1-7.9S54 34.2 54 27c0-2.9-.4-5.7-1.3-8.4-.2-.7-1-1-1.6-.8z" fill="#fff"/><path d="M54.5 8.5c-.5-.5-1.1-.8-1.8-.8s-1.3.3-1.8.8l-.8.8c-.3.3-.3.9 0 1.2.3.3.9.3 1.2 0l.8-.8c.2-.2.4-.3.6-.3s.4.1.6.3c.2.2.3.4.3.6s-.1.4-.3.6L23.8 40.5c-.2.2-.4.3-.6.3s-.4-.1-.6-.3L11.1 29c-.2-.2-.3-.4-.3-.6s.1-.4.3-.6c.2-.2.4-.3.6-.3s.4.1.6.3l10.3 10.3c.2.2.4.3.6.3s.4-.1.6-.3L48.9 13c.3-.3.3-.9 0-1.2-.3-.3-.9-.3-1.2 0L23.2 36.3l-9.7-9.7c-.5-.5-1.1-.8-1.8-.8s-1.3.3-1.8.8-.8 1.1-.8 1.8.3 1.3.8 1.8l11.5 11.5c.5.5 1.1.8 1.8.8s1.3-.3 1.8-.8l29.5-29.5c.5-.5.8-1.1.8-1.8 0-.8-.3-1.4-.8-1.9z" fill="#69ffbd"/></svg>