<?xml version="1.0" encoding="utf-8"?>
<!-- Generator: Adobe Illustrator 21.1.0, SVG Export Plug-In . SVG Version: 6.00 Build 0)  -->
<svg version="1.1" id="Layer_1" xmlns="http://www.w3.org/2000/svg" xmlns:xlink="http://www.w3.org/1999/xlink" x="0px" y="0px"
	 viewBox="0 0 53.8 52.2" style="enable-background:new 0 0 53.8 52.2;" xml:space="preserve">
<style type="text/css">
	.st0{fill:#69FFBD;}
	.st1{fill:#FFFFFF;}
</style>
<g id="XMLID_213_">
	<g id="XMLID_218_">
		<g>
			<path id="XMLID_63_" class="st0" d="M43.8,27.6c-0.4,0-0.8,0.3-0.8,0.8s-0.4,1-1,1c-0.5,0-1-0.4-1-1c0-0.4-0.3-0.8-0.8-0.8
				c-0.4,0-0.8,0.3-0.8,0.8c0,1.4,1.1,2.5,2.5,2.5s2.5-1.1,2.5-2.5C44.6,27.9,44.3,27.6,43.8,27.6L43.8,27.6z"/>
			<path id="XMLID_58_" class="st1" d="M51.1,27.7L48.9,27c-0.3-0.1-0.5-0.3-0.6-0.6c-0.5-1.5-1.2-2.8-2.1-4.1
				c-0.4-0.6-0.9-1.1-1.4-1.6c0.3-1.4,0.5-3,0.5-4.4c0-2-0.4-3.1-1.2-3.6c-0.4-0.2-1.7-0.9-8.6,2.3c-0.2,0.1-0.3,0.2-0.5,0.3
				c-0.5-0.1-0.9-0.2-1.4-0.3c-0.1,0-0.1,0-0.2,0c0.6-1.2,0.9-2.6,1-3.9c0-0.4-0.3-0.8-0.7-0.8s-0.8,0.3-0.8,0.7
				c-0.1,2.3-1,4.4-2.6,6c-1,1-2.1,1.7-3.3,2.1c-2.1-0.3-4.2-0.3-6.3,0c-1.2-0.4-2.3-1.1-3.3-2.1c-1.7-1.7-2.7-4-2.7-6.4
				s0.9-4.7,2.7-6.4c1.7-1.7,4-2.7,6.4-2.7s4.7,0.9,6.4,2.7c0.7,0.7,1.3,1.5,1.7,2.3c0.2,0.4,0.7,0.5,1,0.3c0.4-0.2,0.5-0.7,0.3-1
				c-0.5-1-1.2-1.9-2-2.7c-2-2-4.7-3.1-7.5-3.1s-5.5,1.1-7.5,3.1s-3.1,4.7-3.1,7.5s1.1,5.5,3.1,7.5c0.6,0.6,1.2,1.1,1.9,1.5l0,0
				c-0.5,0.1-1,0.3-1.4,0.4s-0.6,0.6-0.5,1s0.6,0.6,1,0.5c4.2-1.4,8.9-1.4,13.2,0c0.1,0,0.2,0,0.2,0c0.3,0,0.6-0.2,0.7-0.5
				c0.1-0.4-0.1-0.8-0.5-1c-0.5-0.2-1-0.3-1.4-0.4l0,0c0.7-0.4,1.3-0.9,1.9-1.5c0.5-0.5,1-1.1,1.4-1.7c0.2,0,0.4,0.1,0.6,0.1
				c0.3,0.1,0.6,0.1,0.8,0.2v0.1c-0.4,1.8-0.4,3.4,0.1,4.7c0.4,1.2,1.1,2.2,2.1,2.9c1.2,0.8,2.6,1.2,3.8,1.2c1,0,1.8-0.2,2.5-0.6
				s1.3-1.3,1.8-2.6c0.2,0.3,0.4,0.5,0.6,0.8c0.8,1.1,1.4,2.3,1.8,3.6c0.2,0.8,0.8,1.4,1.6,1.6l2.2,0.7c0.6,0.2,1,0.7,1,1.3V34
				c0,0.6-0.4,1.1-1,1.3l-3.5,1.1c-0.6,0.2-1,0.6-1.3,1.1c-1.4,2.4-3.6,4.4-6.5,5.9c-0.3,0.2-0.6,0.5-0.6,0.9l-1.1,6
				c0,0.2-0.2,0.3-0.3,0.3h-3.7c-0.2,0-0.3-0.1-0.3-0.3L32.7,47c-0.1-0.7-0.7-1.1-1.4-1c-1.6,0.2-3.2,0.4-4.8,0.4
				c-1.2,0-2.4-0.1-3.6-0.2c-0.6-0.1-1.2,0.4-1.3,1L21,50.3c0,0.2-0.2,0.3-0.3,0.3H17c-0.2,0-0.3-0.1-0.3-0.3l-1.1-5.6
				c-0.1-0.4-0.3-0.7-0.6-0.8c-5-2.6-7.6-7.1-7.6-12.8c0-2.9,0.6-5.4,1.9-7.6c1.2-2,2.9-3.7,5.1-4.9c0.4-0.2,0.5-0.7,0.3-1.1
				S14,17,13.6,17.2c-4.2,2.5-6.8,6.2-7.5,11.1c-0.1,0-0.1,0-0.2,0c0-0.5-0.1-1-0.3-1.6c-0.5-1.1-1.4-1.9-2.4-2.1
				c-0.8-0.1-1.5,0.2-2,0.9c-0.7,1-0.6,1.8-0.4,2.2c0.4,0.8,1.4,1.4,3.1,1.7c0,0.1-0.1,0.1-0.2,0.2c-1,1.2-2.2,1.5-2.9,1.5
				c-0.4,0-0.8,0.4-0.8,0.8l0,0c0,0.4,0.3,0.8,0.8,0.8c0.1,0,0.1,0,0.2,0c1,0,2.5-0.4,4-2.2c0.2-0.3,0.4-0.6,0.6-0.9
				c0.1,0,0.3,0,0.4,0l0,0c0,0.4,0,0.8,0,1.3c0,3.2,0.8,6.1,2.3,8.6c1.4,2.3,3.4,4.1,6,5.5l1.1,5.5c0.2,0.9,1,1.6,1.9,1.6H21
				c0.9,0,1.7-0.7,1.9-1.6l0.5-2.8c1.1,0.1,2.3,0.2,3.4,0.2c1.6,0,3.2-0.1,4.8-0.3l0.6,3c0.2,0.9,1,1.6,1.9,1.6h3.7
				c0.9,0,1.7-0.7,1.9-1.6l1.1-5.8c3.1-1.6,5.4-3.8,7-6.4c0.1-0.2,0.3-0.3,0.5-0.4l3.5-1.1c1.2-0.4,2-1.5,2-2.8v-3.6
				C53.2,29.2,52.4,28.1,51.1,27.7L51.1,27.7z M43.7,18.4c-0.3,2.6-1.1,4.7-1.9,5.2c-0.9,0.5-3,0.6-4.6-0.5
				c-1.6-1.2-2.1-3.3-1.5-6.1c0.1-0.3,0.3-0.5,0.5-0.6c3.9-1.8,6.1-2.4,7-2.4c0.1,0,0.2,0,0.3,0C43.7,14.3,44,15.9,43.7,18.4
				L43.7,18.4z M1.9,27.1c-0.1-0.2,0.1-0.5,0.2-0.6c0.2-0.3,0.4-0.3,0.5-0.3h0.1c0.4,0,0.9,0.4,1.1,1.1C3.9,27.5,3.9,27.7,4,28
				C3,27.8,2.1,27.4,1.9,27.1L1.9,27.1z"/>
		</g>
	</g>
	<g id="XMLID_214_">
		<path id="XMLID_215_" class="st0" d="M23.7,18.2L23.7,18.2c-4.3,0-7.7-3.5-7.7-7.8c0-0.4,0.3-0.8,0.8-0.8s0.8,0.3,0.8,0.7l0,0
			c0,3.4,2.8,6.3,6.2,6.3c0.4,0,0.8,0.3,0.8,0.8C24.5,17.9,24.1,18.2,23.7,18.2z M30.8,11.2c-0.4,0-0.8-0.3-0.8-0.7v-0.1
			c0-3.5-2.8-6.3-6.3-6.3c-0.4,0-0.8-0.3-0.8-0.8c0-0.4,0.3-0.8,0.8-0.8l0,0c4.3,0,7.8,3.5,7.8,7.8C31.6,10.8,31.2,11.2,30.8,11.2z"
			/>
	</g>
</g>
</svg>
