<svg id="Layer_1" xmlns="http://www.w3.org/2000/svg" viewBox="0 0 61.6 39.5"><style>.st0{fill:#fff}</style><g id="XMLID_280_"><path id="XMLID_302_" class="st0" d="M41.4 22.1l-5.3-2.3c-.4-.2-.6-.5-.6-.9v-1.4c1.8-1.4 2.9-3.6 2.9-6v-2c.6-.3 1-.9 1-1.6v-.2c0-4.2-3.5-7.7-7.7-7.7h-1.9c-4.2 0-7.7 3.5-7.7 7.7v1.8c0 .6.3 1.2.7 1.5.1.1.2.1.2.2v.4c0 2.4 1.1 4.6 2.9 6V19c0 .4-.2.8-.6.9L20 22.2c-1.7.8-2.8 2.5-2.8 4.4v12c0 .5.4.9.9.9s.9-.4.9-.9V26.3l2.4 2.4c.4.4.6.9.6 1.4v8.5c0 .5.4.9.9.9s.9-.4.9-.9v-8.5c0-1-.4-2-1.1-2.7l-2.9-2.9c.3-.3.6-.5.9-.7l5.2-2.3 3.8 3.8v13.2c0 .5.4.9.9.9s.9-.4.9-.9V25.3l3.8-3.8 5.2 2.3c.4.2.7.4.9.7l-2.9 2.9c-.7.7-1.1 1.7-1.1 2.7v8.5c0 .5.4.9.9.9s.9-.4.9-.9v-8.5c0-.5.2-1 .6-1.4l2.4-2.4v12.3c0 .5.4.9.9.9s.9-.4.9-.9v-12c.3-2-.8-3.7-2.6-4.5zm-7.2-1.7l-3.5 3.5-3.5-3.5v-.1c.3-.4.4-.9.4-1.4v-.5l.2.1c1.9.8 4 .8 5.9 0l.2-.1v.5c0 .5.1 1 .4 1.4l-.1.1zm-3.4-3.1c-3.2 0-5.9-2.6-5.9-5.9V11c.6-.2 1.1-.6 1.6-1.1.4-.3.4-.9.1-1.3s-.9-.4-1.3-.1c-.5.4-.9.7-1.3.8V7.4c0-3.2 2.6-5.9 5.9-5.9h1.9c3.2 0 5.9 2.6 5.9 5.9v.3c-5.4 1.1-8.2-.9-9.1-1.9-.4-.4-.9-.4-1.3 0s-.4.9 0 1.3c2.8 2.8 6.9 2.9 9.4 2.6v1.6c-.1 3.3-2.7 6-5.9 6z"/><path id="XMLID_287_" class="st0" d="M9.4 39.3c.4 0 .8-.4.8-.8v-9.4l2.3-2.3.1.1c.1.1.3.2.4.3l.9.4c.1.1.2.1.4.1.3 0 .6-.2.7-.4.2-.4 0-.9-.4-1.1l-.9-.4c-.4-.2-.6-.6-.6-1v-2.1c1.8-1.2 2.9-3.3 2.9-5.4v-1.9c0-2.3-1.1-4.3-3-5.6h-.1v-.1c.1-.4.2-.7.2-1.1 0-2-1.7-3.7-3.7-3.7S5.7 6.6 5.7 8.6c0 .4.1.7.2 1.1v.1h-.1c-1.9 1.2-3 3.3-3 5.6v1.9c0 2.2 1.1 4.2 2.9 5.4v2.1c0 .4-.2.8-.6 1L2 27.4c-1.3.6-2 1.9-2 3.3v7.9c0 .4.4.8.8.8s.8-.4.8-.8v-7.8l1.7 1.7c.4.4.6.9.6 1.5v4.6c0 .4.4.8.8.8s.8-.4.8-.8V34c0-1-.4-1.9-1.1-2.6l-2.2-2.2.1-.1c.1-.1.3-.2.5-.3l3.1-1.6c.1-.1.3-.2.4-.3l.1-.1 2.3 2.3v9.4c-.1.5.3.8.7.8zm0-33c1.2 0 2.1.9 2.1 2.1v.5h-.1c-1.3-.4-2.6-.4-3.9 0h-.1v-.5c-.1-1.1.9-2.1 2-2.1zm-5 8.8c.1-2.7 2.3-4.9 5-4.9 2.8 0 5 2.3 5 5v.4h-.1c-.6.2-1.2.3-1.8.3-2.8 0-4.4-2.1-4.5-2.2-.1-.2-.4-.3-.6-.3s-.5.1-.6.2c-.9.9-1.8 1.3-2.4 1.5h-.2.2zm0 2.1v-.3h.1c.7-.2 1.8-.5 2.9-1.4l.1-.1.1.1c.5.5 1.1.9 1.7 1.2 1.6.9 3.3 1.1 5.1.7h.1v.1c-.1 2.7-2.3 4.7-5 4.7-2.9 0-5.1-2.2-5.1-5zm2.8 8.3c.1-.3.1-.5.1-.8v-1.3h.1c1.3.4 2.7.4 3.9 0h.1v1.3c0 .2 0 .5.1.7v.1l-2.2 2.2-2.1-2.2z"/><path id="XMLID_282_" d="M60.8 39.3c.4 0 .8-.4.8-.8v-9.8c0-1.4-.8-2.7-2-3.3l-5.1-2.5c-.4-.2-.6-.6-.6-1v-1.3c1.2-1.1 1.9-2.6 1.9-4.2v-1.1h.2c.4 0 .8-.4.8-.8v-1.9c0-3.1-2.5-5.6-5.6-5.6h-1.9c-3.1 0-5.6 2.5-5.6 5.6v1.9c0 .4.4.8.8.8h.2v1.1c0 1.6.7 3.1 1.9 4.2v1.3c0 .4-.2.8-.6 1-.2.1-.3.3-.4.5s-.1.4 0 .6c.1.3.4.4.7.4.1 0 .2 0 .4-.1.1-.1.3-.2.4-.3l.1-.1 2.3 2.3v12.3c0 .4.4.8.8.8s.8-.4.8-.8V26.2l2.3-2.3.1.1c.1.1.3.2.4.3l5.1 2.5-1.6 1.6c-.7.7-1.1 1.6-1.1 2.6v7.5c0 .4.4.8.8.8s.8-.4.8-.8V31c0-.6.2-1.1.6-1.5l1.6-1.6.1.2c0 .2.1.4.1.5v9.8c-.3.6.1.9.5.9zm-15.5-26h-.1v-1c0-2.2 1.8-4.1 4.1-4.1h1.9c2.2 0 4.1 1.8 4.1 4.1v1.1h-.1c-3.9-.2-6.3-1.7-6.4-1.8-.3-.2-.7-.2-1 .1-1 1-1.9 1.4-2.5 1.6zm7 9.3l-2.2 2.2-2.2-2.2v-.1c.1-.2.1-.5.1-.7v-.4l.2.1c1.3.5 2.7.5 3.9 0l.2-.1v.4c0 .2 0 .5.1.7l-.1.1zm-2.1-2.3c-2.2 0-4.1-1.8-4.1-4.1v-1.5h.1c.7-.3 1.4-.7 2.1-1.3h.2c.9.5 2.9 1.3 5.7 1.6h.1v1.2c-.1 2.3-1.9 4.1-4.1 4.1z" fill="#69ffbd"/></g></svg>