<?xml version="1.0" encoding="utf-8"?>
<!-- Generator: Adobe Illustrator 21.1.0, SVG Export Plug-In . SVG Version: 6.00 Build 0)  -->
<svg version="1.1" id="Layer_1" xmlns="http://www.w3.org/2000/svg" xmlns:xlink="http://www.w3.org/1999/xlink" x="0px" y="0px"
	 viewBox="0 0 53 52.8" style="enable-background:new 0 0 53 52.8;" xml:space="preserve">
<style type="text/css">
	.st0{fill:#69FFBD;}
	.st1{fill:#FFFFFF;}
</style>
<g id="XMLID_205_">
	<g id="XMLID_210_">
		<path id="XMLID_211_" class="st0" d="M8.2,23.2c-0.1,0-0.1,0-0.2,0c-0.4-0.1-0.7-0.5-0.6-1c1.1-5.1,4.1-9.4,8.5-12.2
			c4.4-2.8,9.6-3.8,14.7-2.6c0.4,0.1,0.7,0.5,0.6,1c-0.1,0.4-0.5,0.7-1,0.6C20.6,6.9,11,13,8.9,22.7C8.9,23,8.6,23.2,8.2,23.2z"/>
	</g>
	<g id="XMLID_208_">
		<path id="XMLID_209_" class="st0" d="M26.5,45.9c-1.4,0-2.8-0.1-4.2-0.5c-0.4-0.1-0.7-0.5-0.6-1c0.1-0.4,0.5-0.7,1-0.6
			c9.6,2.1,19.2-4,21.3-13.7c0.1-0.4,0.5-0.7,1-0.6c0.4,0.1,0.7,0.5,0.6,1c-1.1,5.1-4.1,9.4-8.5,12.2C33.8,44.8,30.2,45.9,26.5,45.9
			z"/>
	</g>
	<path id="XMLID_207_" class="st1" d="M52,27.3h-2.6v-9.4c0-0.5-0.4-0.9-0.9-0.9l0,0c-0.5,0-0.9,0.4-0.9,0.9v8.5H31
		c-0.7,0-1.3-0.6-1.3-1.3c0-0.7,0.6-1.3,1.3-1.3h1.3v-1.7h-2.1c-0.7,0-1.3-0.6-1.3-1.3s0.6-1.3,1.3-1.3h1.3v-1.6h-2.1
		c-0.7,0-1.3-0.6-1.3-1.3c0-0.7,0.6-1.3,1.3-1.3h1.3v-1.7h-1.3c-0.7,0-1.3-0.6-1.3-1.3s0.6-1.3,1.3-1.3h7.2c0.5,0,0.9-0.4,0.9-0.9V5
		c0-1.6,1.1-2.9,2.6-3.3v5c0,0.2,0.1,0.4,0.2,0.6l3.4,3.4c0.2,0.2,0.4,0.2,0.6,0.2h3.4V12c0,0.5,0.4,0.9,0.9,0.9l0,0
		c0.5,0,0.9-0.4,0.9-0.9v-2h2.6c0.5,0,0.9-0.4,0.9-0.9s-0.4-0.9-0.9-0.9h-3.5c-0.5,0-0.9,0.4-0.9,0.9h-3l-2.9-2.9V0.9
		c0-0.5-0.4-0.8-0.8-0.9c-2.8,0-5.1,2.3-5.1,5.1v4.3h-6.3c-1.4,0-2.7,1-3,2.4c-0.2,1.1,0.1,2.1,0.8,2.8c-0.6,0.5-0.9,1.3-0.9,2.1
		c0,1.1,0.6,2,1.4,2.5c-0.4,0.5-0.6,1.1-0.6,1.7c0,1.1,0.6,2,1.4,2.5c-0.4,0.5-0.6,1.1-0.6,1.8c0,1.6,1.5,2.9,3.1,2.9h16.4
		c0,0.5,0.4,0.9,0.9,0.9h3.4c0.5,0,0.9-0.4,0.9-0.9C52.8,27.6,52.4,27.3,52,27.3z"/>
	<path id="XMLID_206_" class="st1" d="M26.5,36.2c0-1.1-0.6-2-1.4-2.5c0.4-0.5,0.6-1.1,0.6-1.7c0-1.1-0.6-2-1.4-2.5
		c0.4-0.5,0.6-1.1,0.6-1.8c0-1.6-1.5-2.9-3.2-2.9H5.3c0-0.5-0.4-0.9-0.9-0.9H1c-0.5,0-0.9,0.4-0.9,0.9s0.4,0.9,0.9,0.9h2.6v9.2
		c0,0.5,0.4,0.9,0.9,0.9l0,0c0.5,0,0.9-0.4,0.9-0.9v-8.5H22c0.7,0,1.3,0.6,1.3,1.3c0,0.7-0.6,1.3-1.3,1.3h-1.3v1.7h2.1
		c0.7,0,1.3,0.6,1.3,1.3c0,0.7-0.6,1.3-1.3,1.3h-1.3v1.6h2.1c0.7,0,1.3,0.6,1.3,1.3c0,0.7-0.6,1.3-1.3,1.3h-1.3v1.7h1.3
		c0.7,0,1.3,0.6,1.3,1.3c0,0.7-0.6,1.3-1.3,1.3h-7.2c-0.5,0-0.9,0.4-0.9,0.9v5.1c0,1.6-1.1,2.9-2.6,3.3v-5c0-0.2-0.1-0.4-0.2-0.6
		l-3.4-3.4c-0.2-0.2-0.4-0.2-0.6-0.2H5.3v-1.1c0-0.5-0.4-0.9-0.9-0.9l0,0c-0.5,0-0.9,0.4-0.9,0.9v2H0.9c-0.5,0-0.9,0.4-0.9,0.9
		s0.4,0.9,0.9,0.9h3.4c0.5,0,0.9-0.4,0.9-0.9h3.1l2.9,2.9v5.3c0,0.5,0.4,0.8,0.8,0.9c2.8,0,5.1-2.3,5.1-5.1v-4.3h6.3
		c1.4,0,2.7-1,3-2.4c0.2-1.1-0.1-2.1-0.8-2.7C26.1,37.8,26.5,37,26.5,36.2z"/>
</g>
</svg>
