<svg id="Layer_1" xmlns="http://www.w3.org/2000/svg" viewBox="0 0 53 52.8"><style>.st0{fill:#69ffbd}.st1{fill:#fff}</style><g id="XMLID_205_"><g id="XMLID_210_"><path id="XMLID_211_" class="st0" d="M8.2 23.2H8c-.4-.1-.7-.5-.6-1 1.1-5.1 4.1-9.4 8.5-12.2 4.4-2.8 9.6-3.8 14.7-2.6.4.1.7.5.6 1-.1.4-.5.7-1 .6C20.6 6.9 11 13 8.9 22.7c0 .3-.3.5-.7.5z"/></g><g id="XMLID_208_"><path id="XMLID_209_" class="st0" d="M26.5 45.9c-1.4 0-2.8-.1-4.2-.5-.4-.1-.7-.5-.6-1 .1-.4.5-.7 1-.6 9.6 2.1 19.2-4 21.3-13.7.1-.4.5-.7 1-.6.4.1.7.5.6 1-1.1 5.1-4.1 9.4-8.5 12.2-3.3 2.1-6.9 3.2-10.6 3.2z"/></g><path id="XMLID_207_" class="st1" d="M52 27.3h-2.6v-9.4c0-.5-.4-.9-.9-.9s-.9.4-.9.9v8.5H31c-.7 0-1.3-.6-1.3-1.3 0-.7.6-1.3 1.3-1.3h1.3v-1.7h-2.1c-.7 0-1.3-.6-1.3-1.3s.6-1.3 1.3-1.3h1.3v-1.6h-2.1c-.7 0-1.3-.6-1.3-1.3 0-.7.6-1.3 1.3-1.3h1.3v-1.7h-1.3c-.7 0-1.3-.6-1.3-1.3s.6-1.3 1.3-1.3h7.2c.5 0 .9-.4.9-.9V5c0-1.6 1.1-2.9 2.6-3.3v5c0 .2.1.4.2.6l3.4 3.4c.2.2.4.2.6.2h3.4V12c0 .5.4.9.9.9s.9-.4.9-.9v-2h2.6c.5 0 .9-.4.9-.9s-.4-.9-.9-.9h-3.5c-.5 0-.9.4-.9.9h-3l-2.9-2.9V.9c0-.5-.4-.8-.8-.9-2.8 0-5.1 2.3-5.1 5.1v4.3h-6.3c-1.4 0-2.7 1-3 2.4-.2 1.1.1 2.1.8 2.8-.6.5-.9 1.3-.9 2.1 0 1.1.6 2 1.4 2.5-.4.5-.6 1.1-.6 1.7 0 1.1.6 2 1.4 2.5-.4.5-.6 1.1-.6 1.8 0 1.6 1.5 2.9 3.1 2.9h16.4c0 .5.4.9.9.9h3.4c.5 0 .9-.4.9-.9s-.4-.8-.8-.8z"/><path id="XMLID_206_" class="st1" d="M26.5 36.2c0-1.1-.6-2-1.4-2.5.4-.5.6-1.1.6-1.7 0-1.1-.6-2-1.4-2.5.4-.5.6-1.1.6-1.8 0-1.6-1.5-2.9-3.2-2.9H5.3c0-.5-.4-.9-.9-.9H1c-.5 0-.9.4-.9.9s.4.9.9.9h2.6v9.2c0 .5.4.9.9.9s.9-.4.9-.9v-8.5H22c.7 0 1.3.6 1.3 1.3 0 .7-.6 1.3-1.3 1.3h-1.3v1.7h2.1c.7 0 1.3.6 1.3 1.3 0 .7-.6 1.3-1.3 1.3h-1.3v1.6h2.1c.7 0 1.3.6 1.3 1.3 0 .7-.6 1.3-1.3 1.3h-1.3v1.7h1.3c.7 0 1.3.6 1.3 1.3 0 .7-.6 1.3-1.3 1.3h-7.2c-.5 0-.9.4-.9.9v5.1c0 1.6-1.1 2.9-2.6 3.3v-5c0-.2-.1-.4-.2-.6l-3.4-3.4c-.2-.2-.4-.2-.6-.2H5.3v-1.1c0-.5-.4-.9-.9-.9s-.9.4-.9.9v2H.9c-.5 0-.9.4-.9.9s.4.9.9.9h3.4c.5 0 .9-.4.9-.9h3.1l2.9 2.9v5.3c0 .5.4.8.8.9 2.8 0 5.1-2.3 5.1-5.1v-4.3h6.3c1.4 0 2.7-1 3-2.4.2-1.1-.1-2.1-.8-2.7.5-.5.9-1.3.9-2.1z"/></g></svg>