<?xml version="1.0" encoding="utf-8"?>
<!-- Generator: Adobe Illustrator 21.1.0, SVG Export Plug-In . SVG Version: 6.00 Build 0)  -->
<svg version="1.1" id="Layer_1" xmlns="http://www.w3.org/2000/svg" xmlns:xlink="http://www.w3.org/1999/xlink" x="0px" y="0px"
	 viewBox="0 0 42.2 43.7" style="enable-background:new 0 0 42.2 43.7;" xml:space="preserve">
<style type="text/css">
	.st0{fill:#FFFFFF;}
	.st1{fill:#69FFBD;}
</style>
<g id="XMLID_358_">
	<path id="XMLID_399_" class="st0" d="M41.2,0.1H11.4c-0.4,0-0.8,0.3-0.8,0.8c0,0.4,0.3,0.8,0.8,0.8h29v37.4H3v-6.4h1.9v3.8
		c0,0.4,0.3,0.8,0.8,0.8h4.4c0.4,0,0.8-0.3,0.8-0.8c0-0.4-0.3-0.8-0.8-0.8H6.5v-3h0.7c0.4,0,0.8-0.3,0.8-0.8v-7.7
		c0-0.4-0.3-0.8-0.8-0.8H6.5v-6.2h0.7c0.4,0,0.8-0.3,0.8-0.8V8.7c0-0.4-0.3-0.8-0.8-0.8H6.5v-3h30.6V9c0,0.4,0.3,0.8,0.8,0.8
		c0.4,0,0.8-0.3,0.8-0.8V4.2c0-0.4-0.3-0.8-0.8-0.8H5.8C5.4,3.4,5,3.7,5,4.2V8H3.1V1.6h5.7c0.4,0,0.8-0.3,0.8-0.8
		C9.6,0.4,9.3,0,8.8,0H2.3C1.9,0,1.5,0.3,1.5,0.8V8H0.8C0.4,8,0,8.3,0,8.8v7.7c0,0.4,0.3,0.8,0.8,0.8h0.7v6.2H0.8
		c-0.4,0-0.8,0.3-0.8,0.8V32c0,0.4,0.3,0.8,0.8,0.8h0.7V40c0,0.4,0.3,0.8,0.8,0.8h3.1v2.1c0,0.4,0.3,0.8,0.8,0.8h8
		c0.4,0,0.8-0.3,0.8-0.8v-2.1h13.7v2.1c0,0.4,0.3,0.8,0.8,0.8h8c0.4,0,0.8-0.3,0.8-0.8v-2.1h3.1c0.4,0,0.8-0.3,0.8-0.8V1.1
		C41.9,0.4,41.6,0.1,41.2,0.1L41.2,0.1z M1.5,15.7V9.5h4.8v6.2H1.5z M4.9,17.2v6.2H3v-6.2H4.9z M1.5,31v-6.2h4.8V31H1.5z M6.9,41.9
		v-1.4h6.5v1.4H6.9z M36.6,41.9h-6.5v-1.4h6.5V41.9z"/>
	<path id="XMLID_396_" class="st0" d="M37.8,11c-0.4,0-0.8,0.3-0.8,0.8v23.8H12.7c-0.4,0-0.8,0.3-0.8,0.8c0,0.4,0.3,0.8,0.8,0.8h25
		c0.4,0,0.8-0.3,0.8-0.8V11.9C38.5,11.4,38.2,11,37.8,11L37.8,11z"/>
	<path id="XMLID_384_" class="st1" d="M22,11.9c-4.6,0-8.4,3.7-8.4,8.4c0,4.6,3.7,8.4,8.4,8.4c4.6,0,8.4-3.7,8.4-8.4
		C30.4,15.7,26.7,11.9,22,11.9L22,11.9z M28.8,19.5h-2.9c-0.1-0.5-0.3-1-0.6-1.5l2-2C28.2,17,28.7,18.2,28.8,19.5L28.8,19.5z
		 M22.8,13.5c1.3,0.1,2.5,0.7,3.5,1.5l-2,2c-0.4-0.3-0.9-0.5-1.5-0.6V13.5z M21.3,13.5v2.9c-0.5,0.1-1,0.3-1.5,0.6l-2-2
		C18.8,14.1,20,13.6,21.3,13.5L21.3,13.5z M16.7,16l2,2c-0.3,0.4-0.5,0.9-0.6,1.5h-2.9C15.4,18.2,15.9,17,16.7,16L16.7,16z M15.3,21
		h2.9c0.1,0.5,0.3,1,0.6,1.5l-2,2C15.9,23.5,15.4,22.3,15.3,21L15.3,21z M21.3,27.1c-1.3-0.1-2.5-0.7-3.5-1.5l2-2
		c0.4,0.3,0.9,0.5,1.5,0.6V27.1z M19.6,20.3c0-1.4,1.1-2.5,2.5-2.5s2.5,1.1,2.5,2.5s-1.1,2.5-2.5,2.5C20.7,22.7,19.6,21.6,19.6,20.3
		L19.6,20.3z M22.8,27.1v-2.9c0.5-0.1,1-0.3,1.5-0.6l2,2C25.3,26.4,24.1,26.9,22.8,27.1L22.8,27.1z M27.4,24.5l-2-2
		c0.3-0.4,0.5-0.9,0.6-1.5h2.9C28.7,22.3,28.2,23.5,27.4,24.5L27.4,24.5z"/>
</g>
</svg>
