<svg id="Layer_1" xmlns="http://www.w3.org/2000/svg" viewBox="0 0 42.2 43.7"><style>.st0{fill:#fff}</style><g id="XMLID_358_"><path id="XMLID_399_" class="st0" d="M41.2.1H11.4c-.4 0-.8.3-.8.8 0 .4.3.8.8.8h29v37.4H3v-6.4h1.9v3.8c0 .4.3.8.8.8h4.4c.4 0 .8-.3.8-.8 0-.4-.3-.8-.8-.8H6.5v-3h.7c.4 0 .8-.3.8-.8v-7.7c0-.4-.3-.8-.8-.8h-.7v-6.2h.7c.4 0 .8-.3.8-.8V8.7c0-.4-.3-.8-.8-.8h-.7v-3h30.6V9c0 .4.3.8.8.8.4 0 .8-.3.8-.8V4.2c0-.4-.3-.8-.8-.8H5.8c-.4 0-.8.3-.8.8V8H3.1V1.6h5.7c.4 0 .8-.3.8-.8 0-.4-.3-.8-.8-.8H2.3c-.4 0-.8.3-.8.8V8H.8c-.4 0-.8.3-.8.8v7.7c0 .4.3.8.8.8h.7v6.2H.8c-.4 0-.8.3-.8.8V32c0 .4.3.8.8.8h.7V40c0 .4.3.8.8.8h3.1v2.1c0 .4.3.8.8.8h8c.4 0 .8-.3.8-.8v-2.1h13.7v2.1c0 .4.3.8.8.8h8c.4 0 .8-.3.8-.8v-2.1h3.1c.4 0 .8-.3.8-.8V1.1c-.3-.7-.6-1-1-1zM1.5 15.7V9.5h4.8v6.2H1.5zm3.4 1.5v6.2H3v-6.2h1.9zM1.5 31v-6.2h4.8V31H1.5zm5.4 10.9v-1.4h6.5v1.4H6.9zm29.7 0h-6.5v-1.4h6.5v1.4z"/><path id="XMLID_396_" class="st0" d="M37.8 11c-.4 0-.8.3-.8.8v23.8H12.7c-.4 0-.8.3-.8.8 0 .4.3.8.8.8h25c.4 0 .8-.3.8-.8V11.9c0-.5-.3-.9-.7-.9z"/><path id="XMLID_384_" d="M22 11.9c-4.6 0-8.4 3.7-8.4 8.4 0 4.6 3.7 8.4 8.4 8.4 4.6 0 8.4-3.7 8.4-8.4 0-4.6-3.7-8.4-8.4-8.4zm6.8 7.6h-2.9c-.1-.5-.3-1-.6-1.5l2-2c.9 1 1.4 2.2 1.5 3.5zm-6-6c1.3.1 2.5.7 3.5 1.5l-2 2c-.4-.3-.9-.5-1.5-.6v-2.9zm-1.5 0v2.9c-.5.1-1 .3-1.5.6l-2-2c1-.9 2.2-1.4 3.5-1.5zM16.7 16l2 2c-.3.4-.5.9-.6 1.5h-2.9c.2-1.3.7-2.5 1.5-3.5zm-1.4 5h2.9c.1.5.3 1 .6 1.5l-2 2c-.9-1-1.4-2.2-1.5-3.5zm6 6.1c-1.3-.1-2.5-.7-3.5-1.5l2-2c.4.3.9.5 1.5.6v2.9zm-1.7-6.8c0-1.4 1.1-2.5 2.5-2.5s2.5 1.1 2.5 2.5-1.1 2.5-2.5 2.5c-1.4-.1-2.5-1.2-2.5-2.5zm3.2 6.8v-2.9c.5-.1 1-.3 1.5-.6l2 2c-1 .8-2.2 1.3-3.5 1.5zm4.6-2.6l-2-2c.3-.4.5-.9.6-1.5h2.9c-.2 1.3-.7 2.5-1.5 3.5z" fill="#69ffbd"/></g></svg>