<svg xmlns="http://www.w3.org/2000/svg" viewBox="0 0 50.2 46.3"><path d="M48.1 25.6l-5-11.9c1.2-1.4.5-3.6-1.3-4.1L28.8 6c-.3-.6-.7-1.1-1.2-1.5V2.6C27.6 1.2 26.4 0 25 0s-2.6 1.2-2.6 2.6v1.9c-.5.4-.9.9-1.2 1.5l-13 3.6c-1.9.5-2.5 2.8-1.2 4.2L2.1 25.6c-1.3 0-2.1 1-2.1 2v.7c0 1.1.9 2 2 2h.5c2.7 4.6 9.3 4.5 11.9 0h.5c1.1 0 2-.9 2-2v-.7c0-1-.8-2-2.1-2l-4.6-11.2 12.2-3.3V35h-.2c-1 0-1.9.8-1.9 1.9v1.3h-1.8c-1.1 0-2 .9-2 2v1.4c-1.1 0-1.9.9-1.9 2v.7c0 1.1.9 2 2 2h6.7c.4 0 .7-.3.7-.7s-.3-.7-.7-.7h-6.7c-.3 0-.5-.2-.5-.5v-.7c0-.3.2-.5.5-.5h16.8c.3 0 .5.2.5.5v.7c0 .3-.2.5-.5.5h-6.6c-.4 0-.7.3-.7.7s.3.7.7.7h6.7c1.1 0 2-.9 2-2v-.7c0-1.1-.9-2-1.9-2v-1.4c0-1.1-.9-2-2-2h-1.8c.1-.2 0-.3 0-1.3S29 35 27.9 35h-.2V24.9c0-.4-.3-.7-.7-.7-.4 0-.7.3-.7.7V35h-2.2V11.7c.7.2 1.5.2 2.2 0v9.7c0 .4.3.7.7.7.4 0 .7-.3.7-.7V11L40 14.4l-4.6 11.2c-1.3 0-2.1 1-2.1 2v.7c0 1.1.9 2 2 2h.5c2.7 4.5 9.3 4.5 11.9 0h.5c1.1 0 2-.9 2-2v-.7c-.1-1.2-1-2-2.1-2zM7.8 15.7v9.8h-4l4-9.8zM4.5 30.3h8.2c-2.2 2.5-6 2.5-8.2 0zM15 27c.3 0 .5.2.5.5v.7c0 .3-.2.5-.5.5H2.1c-.3 0-.5-.2-.5-.5v-.7c0-.3.2-.5.5-.5H15zm-1.6-1.4H9.3v-9.8l4.1 9.8zM9.1 13.2c-.3 0-.5 0-.7-.2-.8-.5-.6-1.8.3-2L21 7.6c0 .7.2 1.5.6 2.2-12.9 3.5-12.4 3.4-12.5 3.4zM23.9 2.6c0-.6.5-1.1 1.1-1.1s1.1.5 1.1 1.1v1.1c-.7-.2-1.5-.2-2.2 0V2.6zm7.6 37c.3 0 .5.2.5.5v1.4H18.1v-1.4c0-.3.2-.5.5-.5h12.9zm-3.6-3.2c.2 0 .4.2.4.4v.9c0 .2-.2.4-.4.4h-5.6c-.2 0-.4-.2-.4-.4v-.9c0-.2.2-.4.4-.4h5.6zm-2.7-26c-1 .1-2-.5-2.5-1.4-1.3-2.4 1.4-5.1 3.7-3.6 2.3 1.4 1.4 4.8-1.2 5zm17.2 5.3l4.1 9.8h-4.1v-9.8zM28.6 9.8c.4-.7.6-1.4.6-2.2L41.5 11c.6.2.9.8.8 1.4-.2.6-.7.9-1.2.8h-.2c-.1-.1-12.2-3.4-12.3-3.4zm12.3 5.9v9.8h-4.1l4.1-9.8zm-3.3 14.6h8.2c-2.2 2.5-6 2.5-8.2 0zm11-2.1c0 .3-.2.5-.5.5H35.2c-.3 0-.5-.2-.5-.5v-.7c0-.3.2-.5.5-.5h13c.3 0 .5.2.5.5v.7h-.1z" fill="#fff"/></svg>