<?xml version="1.0" encoding="utf-8"?>
<!-- Generator: Adobe Illustrator 21.1.0, SVG Export Plug-In . SVG Version: 6.00 Build 0)  -->
<svg version="1.1" id="Layer_1" xmlns="http://www.w3.org/2000/svg" xmlns:xlink="http://www.w3.org/1999/xlink" x="0px" y="0px"
	 viewBox="0 0 50.2 46.3" style="enable-background:new 0 0 50.2 46.3;" xml:space="preserve">
<style type="text/css">
	.st0{fill:#FFFFFF;}
</style>
<g id="XMLID_312_">
	<path id="XMLID_336_" class="st0" d="M48.1,25.6L48.1,25.6l-5-11.9c1.2-1.4,0.5-3.6-1.3-4.1L28.8,6c-0.3-0.6-0.7-1.1-1.2-1.5V2.6
		C27.6,1.2,26.4,0,25,0s-2.6,1.2-2.6,2.6v1.9c-0.5,0.4-0.9,0.9-1.2,1.5l-13,3.6c-1.9,0.5-2.5,2.8-1.2,4.2L2.1,25.6
		c-1.3,0-2.1,1-2.1,2v0.7c0,1.1,0.9,2,2,2h0.5c2.7,4.6,9.3,4.5,11.9,0h0.5c1.1,0,2-0.9,2-2v-0.7c0-1-0.8-2-2.1-2l-4.6-11.2l12.2-3.3
		V35h-0.2c-1,0-1.9,0.8-1.9,1.9c0,1,0,1.1,0,1.3h-1.8c-1.1,0-2,0.9-2,2v1.4c-1.1,0-1.9,0.9-1.9,2v0.7c0,1.1,0.9,2,2,2h6.7
		c0.4,0,0.7-0.3,0.7-0.7s-0.3-0.7-0.7-0.7h-6.7c-0.3,0-0.5-0.2-0.5-0.5v-0.7c0-0.3,0.2-0.5,0.5-0.5h16.8c0.3,0,0.5,0.2,0.5,0.5v0.7
		c0,0.3-0.2,0.5-0.5,0.5h-6.6c-0.4,0-0.7,0.3-0.7,0.7s0.3,0.7,0.7,0.7h6.7c1.1,0,2-0.9,2-2v-0.7c0-1.1-0.9-2-1.9-2v-1.4
		c0-1.1-0.9-2-2-2h-1.8c0.1-0.2,0-0.3,0-1.3S29,35,27.9,35h-0.2V24.9c0-0.4-0.3-0.7-0.7-0.7c-0.4,0-0.7,0.3-0.7,0.7V35h-2.2V11.7
		c0.7,0.2,1.5,0.2,2.2,0v9.7c0,0.4,0.3,0.7,0.7,0.7c0.4,0,0.7-0.3,0.7-0.7V11L40,14.4l-4.6,11.2c-1.3,0-2.1,1-2.1,2v0.7
		c0,1.1,0.9,2,2,2h0.5c2.7,4.5,9.3,4.5,11.9,0h0.5c1.1,0,2-0.9,2-2v-0.7C50.1,26.4,49.2,25.6,48.1,25.6L48.1,25.6z M7.8,15.7v9.8h-4
		L7.8,15.7z M4.5,30.3h8.2C10.5,32.8,6.7,32.8,4.5,30.3L4.5,30.3z M15,27L15,27c0.3,0,0.5,0.2,0.5,0.5v0.7c0,0.3-0.2,0.5-0.5,0.5
		H2.1c-0.3,0-0.5-0.2-0.5-0.5v-0.7c0-0.3,0.2-0.5,0.5-0.5H15z M13.4,25.6H9.3v-9.8L13.4,25.6z M9.1,13.2c-0.3,0-0.5,0-0.7-0.2
		c-0.8-0.5-0.6-1.8,0.3-2L21,7.6c0,0.7,0.2,1.5,0.6,2.2C8.7,13.3,9.2,13.2,9.1,13.2L9.1,13.2z M23.9,2.6c0-0.6,0.5-1.1,1.1-1.1
		s1.1,0.5,1.1,1.1v1.1c-0.7-0.2-1.5-0.2-2.2,0V2.6z M31.5,39.6c0.3,0,0.5,0.2,0.5,0.5v1.4H18.1v-1.4c0-0.3,0.2-0.5,0.5-0.5
		C19.2,39.6,31,39.6,31.5,39.6L31.5,39.6z M27.9,36.4c0.2,0,0.4,0.2,0.4,0.4v0.9c0,0.2-0.2,0.4-0.4,0.4h-5.6c-0.2,0-0.4-0.2-0.4-0.4
		v-0.9c0-0.2,0.2-0.4,0.4-0.4H27.9z M25.2,10.4c-1,0.1-2-0.5-2.5-1.4c-1.3-2.4,1.4-5.1,3.7-3.6C28.7,6.8,27.8,10.2,25.2,10.4
		L25.2,10.4z M42.4,15.7l4.1,9.8h-4.1V15.7z M28.6,9.8c0.4-0.7,0.6-1.4,0.6-2.2L41.5,11c0.6,0.2,0.9,0.8,0.8,1.4
		c-0.2,0.6-0.7,0.9-1.2,0.8c-0.1,0-0.1,0-0.2,0C40.8,13.1,28.7,9.8,28.6,9.8L28.6,9.8z M40.9,15.7v9.8h-4.1L40.9,15.7z M37.6,30.3
		h8.2C43.6,32.8,39.8,32.8,37.6,30.3L37.6,30.3z M48.6,28.2c0,0.3-0.2,0.5-0.5,0.5H35.2c-0.3,0-0.5-0.2-0.5-0.5v-0.7
		c0-0.3,0.2-0.5,0.5-0.5h12.4l0,0h0.6c0.3,0,0.5,0.2,0.5,0.5v0.7H48.6z"/>
</g>
</svg>
