<svg xmlns="http://www.w3.org/2000/svg" viewBox="0 0 49.7 48.1"><path d="M34.4 28.5c-.4-.5-1.1-.7-1.7-.7s-1.2.2-1.7.7l-.1.2c-.4.4-.7 1-.7 1.7 0 .6.2 1.2.7 1.7l4.1 4.1c1 1 2.5 1 3.5 0l.1-.1c1-1 1-2.5-.1-3.5l-4.1-4.1zm-4.7 4.7c-.4-.5-1.1-.7-1.7-.7s-1.2.2-1.7.7l-.1.1c-1 1-1 2.5 0 3.5l4.1 4.1c1 1 2.5 1 3.5 0l.1-.1c1-1 1-2.5-.1-3.5l-4.1-4.1zM25 37.9c-.4-.5-1.1-.7-1.7-.7s-1.2.2-1.7.7l-.1.1c-1 1-1 2.5 0 3.5l4.1 4.1c1 1 2.5 1 3.5 0l.1-.1c1-1 1-2.5-.1-3.5L25 37.9zm-5.2 4.6c-.4.5-.6 1-.6 1.6 0 .7.2 1.3.7 1.8.5.4 1.1.7 1.8.7.6 0 1.5-.4 2.1-.7l-.1-.1-3.2-3.2c-.1 0-.3-.3-.5-.6.1.1.1.2.1.2l-.3.3zm-.5-1.9c0 .1 0 .1 0 0 0 .1 0 .1 0 0zm19.8-16.8c-.4-.5-1.1-.7-1.7-.7s-1.2.2-1.7.7l-.1.1c-1 1-1 2.5 0 3.5l4.1 4.1c1 1 2.5 1 3.5 0l.1-.1c1-1 1-2.5-.1-3.5l-4.1-4.1z" fill="none"/><path d="M3.9 22.4c-.3-.3-.5-.7-.6-1.1l-.4-3.1c-.1-.6-.4-1.2-.8-1.7-.5-.5-.5-1.4 0-1.9L14.6 2.1c.2-.2.5-.4.8-.4s.6.1.9.3c.5.5 1.3.9 2 .9h3.4c.5 0 1 .2 1.4.6l11.6 11.6c1 1 1 2.7 0 3.6-1 1-2.6.9-3.5 0l-7.9-7.9c-.6-.6-1.6-.6-2.1 0l-6 6c-.3.3-.3.8 0 1.1s.8.3 1.1 0l6-6 7.8 7.8c1.6 1.6 4.3 1.7 5.9 0 .8-.8 1.2-1.9 1.2-3s-.5-2.1-1.3-2.9l-7.3-7L26.7 5 24 2.3c-.7-.7-1.6-1.1-2.5-1.1h-3.3c-.4 0-.7-.1-.9-.4-.5-.5-1.2-.8-2-.8-.7 0-1.4.3-2 .8L.8 13.5c-1.1 1.1-1.1 3 0 4.1.2.2.3.5.4.8l.4 3.1c.1.8.5 1.5 1 2l2.8 2.8 1.3-1.1-2.8-2.8zm39.7 3.5l-3.2-3.2c-1.6-1.6-4.1-1.6-5.7 0l-.1.1c-.9.9-1.3 2.2-1.1 3.5-1.2-.2-2.5.2-3.5 1.1l-.1.1c-.7.7-1.2 1.7-1.2 2.7v.8c-1.2-.2-2.5.2-3.4 1.1l-.1.1c-.9.9-1.3 2.2-1.1 3.5-1.2-.2-2.5.2-3.5 1.1l-.1.1c-.9.9-1.4 2.4-1.2 3.6v.2c.1.4.4 1 .6 1.3s.4.6.5.6l3.2 3.2.1.1 1 .9c.8.7 1.7 1 2.7 1s2.1-.4 2.9-1.2l.1-.1c.9-.9 1.3-2.2 1.1-3.5h.6c1 0 2.1-.4 2.9-1.2l.1-.1c.9-.9 1.3-2.2 1.1-3.5h.6c1 0 2.1-.4 2.9-1.2l.1-.1c.9-.9 1.3-2.2 1.1-3.5h.6c1 0 2.1-.4 2.9-1.2l.1-.1c1.5-1.5 1.6-3.6.2-5.1l-.8-.8-.3-.3zM29.2 45.5c-1.1 1.1-2.6 1.1-3.6.1l-4.1-4.1c-1-1-1-2.5 0-3.5l.1-.1c.5-.5 1.1-.7 1.7-.7s1.3.2 1.7.7l4.1 4.1c1.1 1 1.1 2.5.1 3.5zm4.7-4.7l-.1.1c-1 1-2.5 1-3.5 0l-4.1-4.1c-1-1-1-2.5 0-3.5l.1-.1c.5-.5 1.1-.7 1.7-.7s1.3.2 1.7.7l4.1 4.1c1.1 1 1.1 2.5.1 3.5zm4.7-4.7l-.1.1c-1 1-2.5 1-3.5 0l-4.1-4.1c-.5-.5-.7-1.1-.7-1.7 0-.7.3-1.3.7-1.7l.1-.2c.5-.5 1.1-.7 1.7-.7s1.3.2 1.7.7l4.1 4.1c1.1 1 1.1 2.5.1 3.5zm4.7-4.7l-.1.1c-1 1-2.5 1-3.5 0l-4.1-4.1c-1-1-1-2.5 0-3.5l.1-.1c.5-.5 1.1-.7 1.7-.7s1.3.2 1.7.7l4.1 4.1c1.1 1 1.1 2.5.1 3.5z" fill="#69ffbd"/><path d="M49.1 14.6L36.4 1.9c-.3-.3-.8-.5-1.3-.5s-.9.2-1.3.5l-.6.6c-.7.8-1.7 1.3-2.8 1.4l-.9.1c-1.1.2-1.8.3-2.7 1l1.3 1.2c.6-.5 1.3-.7 2.1-.8l.9-.1c1.4-.2 2.7-.9 3.7-1.9l.6-.6c.1-.1.1-.1.2-.1 0 0 .1 0 .2.1l12.7 12.7c.1.1.1.1.1.2-.5.1-.5.1-.5.2-1.3 1.4-2.2 3.2-2.2 5.2v.4c0 1.3-.5 2.5-1.4 3.5l-.8.8.3.3.6.6 1-1c1.2-1.2 1.9-2.9 1.9-4.6v-.2c0-1.6.6-3.1 1.7-4.2.6-.3.6-1.4-.1-2.1zM24.7 46.8l-.9-.9.9.9zm-5.4-6.3zM6.7 25.2l-1.3 1.1zm18 21.6l-1-.9c-.6.3-1.5.7-2.1.7-.7 0-1.3-.3-1.8-.7-.5-.5-.7-1.1-.7-1.8 0-.6.2-1.1.6-1.6l.3-.3s-.1-.1-.1-.2c-.2-.3-.5-.9-.6-1.3v-.2s-.1.4-.4.7c-1.1 1.1-2.9 1-3.9-.4-.2-.3-.3-.6-.4-1-.1-.8.1-1.7.7-2.2l4.4-4.4c.3-.3.3-.8 0-1.1s-.8-.3-1.1 0l-4.3 4.3c-1 1-2.6 1-3.6 0-.9-1-.9-2.5 0-3.5l4.4-4.4c.3-.3.3-.8 0-1.1s-.8-.3-1.1 0l-4.4 4.4c-.6.6-1.4.8-2.3.7-.3-.1-.7-.2-1-.4-.7-.5-1.1-1.3-1.1-2.1 0-.7.3-1.3.7-1.8l7.3-7.3c.3-.3.3-.8 0-1.1-.3-.3-.8-.3-1.1 0l-5.4 5.4-1.3 1.1-.3.3-.4.4c-1.6 1.6-1.6 4.2 0 5.8.8.8 1.8 1.2 2.9 1.2h.6c-.2 1.3.2 2.6 1.2 3.5 1 1 2.3 1.3 3.5 1.2v.6c0 1.1.4 2.1 1.2 2.9.8.8 1.8 1.2 2.9 1.2h.6c-.2 1.3.2 2.6 1.2 3.5.8.8 1.9 1.2 2.9 1.2s2.3-.5 3-1.3zm18.9-20.9l.3.3-.3-.3z" fill="#fff"/></svg>